<mxfile host="app.diagrams.net" modified="2024-02-19T02:23:46.692Z" agent="Mozilla/5.0 (Windows NT 10.0; Win64; x64) AppleWebKit/537.36 (KHTML, like Gecko) Chrome/121.0.0.0 Safari/537.36" etag="9qTeG3pRpteB1uHIfata" version="23.1.5" type="github">
  <diagram name="Halaman-1" id="kAJFTET_fx3VEe3SkkaH">
    <mxGraphModel dx="1114" dy="600" grid="1" gridSize="10" guides="1" tooltips="1" connect="1" arrows="1" fold="1" page="1" pageScale="1" pageWidth="827" pageHeight="1169" math="0" shadow="0">
      <root>
        <mxCell id="0" />
        <mxCell id="1" parent="0" />
        <mxCell id="St6LL9QaOFPDQxXfzSif-1" value="" style="rounded=0;whiteSpace=wrap;html=1;" vertex="1" parent="1">
          <mxGeometry x="300" y="70" width="250" height="510" as="geometry" />
        </mxCell>
        <mxCell id="St6LL9QaOFPDQxXfzSif-2" value="" style="ellipse;whiteSpace=wrap;html=1;" vertex="1" parent="1">
          <mxGeometry x="357.5" y="240" width="120" height="80" as="geometry" />
        </mxCell>
        <mxCell id="St6LL9QaOFPDQxXfzSif-3" value="" style="ellipse;whiteSpace=wrap;html=1;" vertex="1" parent="1">
          <mxGeometry x="357.5" y="350" width="120" height="80" as="geometry" />
        </mxCell>
        <mxCell id="St6LL9QaOFPDQxXfzSif-4" value="" style="ellipse;whiteSpace=wrap;html=1;" vertex="1" parent="1">
          <mxGeometry x="357.5" y="460" width="120" height="80" as="geometry" />
        </mxCell>
        <mxCell id="St6LL9QaOFPDQxXfzSif-5" value="" style="ellipse;whiteSpace=wrap;html=1;" vertex="1" parent="1">
          <mxGeometry x="357.5" y="140" width="120" height="80" as="geometry" />
        </mxCell>
        <mxCell id="St6LL9QaOFPDQxXfzSif-6" value="PERPUS&amp;nbsp; DIGITAL" style="text;html=1;align=center;verticalAlign=middle;whiteSpace=wrap;rounded=0;" vertex="1" parent="1">
          <mxGeometry x="365" y="90" width="105" height="30" as="geometry" />
        </mxCell>
        <mxCell id="St6LL9QaOFPDQxXfzSif-7" value="form pengujung" style="text;html=1;align=center;verticalAlign=middle;whiteSpace=wrap;rounded=0;" vertex="1" parent="1">
          <mxGeometry x="366.25" y="165" width="102.5" height="30" as="geometry" />
        </mxCell>
        <mxCell id="St6LL9QaOFPDQxXfzSif-8" value="laporan statistik" style="text;html=1;align=center;verticalAlign=middle;whiteSpace=wrap;rounded=0;" vertex="1" parent="1">
          <mxGeometry x="365" y="485" width="102.5" height="30" as="geometry" />
        </mxCell>
        <mxCell id="St6LL9QaOFPDQxXfzSif-9" value="detail buku" style="text;html=1;align=center;verticalAlign=middle;whiteSpace=wrap;rounded=0;" vertex="1" parent="1">
          <mxGeometry x="365" y="375" width="102.5" height="30" as="geometry" />
        </mxCell>
        <mxCell id="St6LL9QaOFPDQxXfzSif-10" value="pencarian buku" style="text;html=1;align=center;verticalAlign=middle;whiteSpace=wrap;rounded=0;" vertex="1" parent="1">
          <mxGeometry x="367.5" y="265" width="102.5" height="30" as="geometry" />
        </mxCell>
        <mxCell id="St6LL9QaOFPDQxXfzSif-11" value="pengunjung" style="shape=umlActor;verticalLabelPosition=bottom;verticalAlign=top;html=1;outlineConnect=0;" vertex="1" parent="1">
          <mxGeometry x="70" y="190" width="120" height="240" as="geometry" />
        </mxCell>
        <mxCell id="St6LL9QaOFPDQxXfzSif-12" value="pustakawan" style="shape=umlActor;verticalLabelPosition=bottom;verticalAlign=top;html=1;outlineConnect=0;" vertex="1" parent="1">
          <mxGeometry x="680" y="195" width="120" height="240" as="geometry" />
        </mxCell>
        <mxCell id="St6LL9QaOFPDQxXfzSif-16" value="" style="endArrow=none;html=1;rounded=0;exitX=1;exitY=0.3333333333333333;exitDx=0;exitDy=0;exitPerimeter=0;entryX=0;entryY=0.5;entryDx=0;entryDy=0;" edge="1" parent="1" source="St6LL9QaOFPDQxXfzSif-11" target="St6LL9QaOFPDQxXfzSif-7">
          <mxGeometry width="50" height="50" relative="1" as="geometry">
            <mxPoint x="390" y="340" as="sourcePoint" />
            <mxPoint x="440" y="290" as="targetPoint" />
            <Array as="points">
              <mxPoint x="230" y="180" />
            </Array>
          </mxGeometry>
        </mxCell>
        <mxCell id="St6LL9QaOFPDQxXfzSif-17" value="" style="endArrow=none;html=1;rounded=0;exitX=0;exitY=0.3333333333333333;exitDx=0;exitDy=0;exitPerimeter=0;entryX=1;entryY=0.5;entryDx=0;entryDy=0;" edge="1" parent="1" source="St6LL9QaOFPDQxXfzSif-12" target="St6LL9QaOFPDQxXfzSif-5">
          <mxGeometry width="50" height="50" relative="1" as="geometry">
            <mxPoint x="736" y="65" as="sourcePoint" />
            <mxPoint x="580" y="160" as="targetPoint" />
            <Array as="points">
              <mxPoint x="620" y="180" />
            </Array>
          </mxGeometry>
        </mxCell>
        <mxCell id="St6LL9QaOFPDQxXfzSif-18" value="" style="endArrow=none;html=1;rounded=0;entryX=0;entryY=0.5;entryDx=0;entryDy=0;exitX=1;exitY=0.3333333333333333;exitDx=0;exitDy=0;exitPerimeter=0;" edge="1" parent="1" source="St6LL9QaOFPDQxXfzSif-11" target="St6LL9QaOFPDQxXfzSif-2">
          <mxGeometry width="50" height="50" relative="1" as="geometry">
            <mxPoint x="390" y="340" as="sourcePoint" />
            <mxPoint x="440" y="290" as="targetPoint" />
          </mxGeometry>
        </mxCell>
        <mxCell id="St6LL9QaOFPDQxXfzSif-20" value="" style="endArrow=none;html=1;rounded=0;entryX=0;entryY=0.3333333333333333;entryDx=0;entryDy=0;entryPerimeter=0;exitX=1;exitY=0.5;exitDx=0;exitDy=0;" edge="1" parent="1" source="St6LL9QaOFPDQxXfzSif-3" target="St6LL9QaOFPDQxXfzSif-12">
          <mxGeometry width="50" height="50" relative="1" as="geometry">
            <mxPoint x="390" y="340" as="sourcePoint" />
            <mxPoint x="650" y="270" as="targetPoint" />
          </mxGeometry>
        </mxCell>
        <mxCell id="St6LL9QaOFPDQxXfzSif-21" value="" style="endArrow=none;html=1;rounded=0;entryX=0;entryY=0.3333333333333333;entryDx=0;entryDy=0;entryPerimeter=0;exitX=1;exitY=0.5;exitDx=0;exitDy=0;" edge="1" parent="1" source="St6LL9QaOFPDQxXfzSif-2" target="St6LL9QaOFPDQxXfzSif-12">
          <mxGeometry width="50" height="50" relative="1" as="geometry">
            <mxPoint x="390" y="340" as="sourcePoint" />
            <mxPoint x="440" y="290" as="targetPoint" />
          </mxGeometry>
        </mxCell>
        <mxCell id="St6LL9QaOFPDQxXfzSif-22" value="" style="endArrow=none;html=1;rounded=0;exitX=1;exitY=0.3333333333333333;exitDx=0;exitDy=0;exitPerimeter=0;entryX=-0.012;entryY=0.588;entryDx=0;entryDy=0;entryPerimeter=0;" edge="1" parent="1" source="St6LL9QaOFPDQxXfzSif-11" target="St6LL9QaOFPDQxXfzSif-3">
          <mxGeometry width="50" height="50" relative="1" as="geometry">
            <mxPoint x="390" y="340" as="sourcePoint" />
            <mxPoint x="440" y="290" as="targetPoint" />
          </mxGeometry>
        </mxCell>
        <mxCell id="St6LL9QaOFPDQxXfzSif-23" value="" style="endArrow=none;html=1;rounded=0;exitX=1;exitY=0.5;exitDx=0;exitDy=0;entryX=0;entryY=0.3333333333333333;entryDx=0;entryDy=0;entryPerimeter=0;" edge="1" parent="1" source="St6LL9QaOFPDQxXfzSif-4" target="St6LL9QaOFPDQxXfzSif-12">
          <mxGeometry width="50" height="50" relative="1" as="geometry">
            <mxPoint x="390" y="340" as="sourcePoint" />
            <mxPoint x="440" y="290" as="targetPoint" />
          </mxGeometry>
        </mxCell>
      </root>
    </mxGraphModel>
  </diagram>
</mxfile>
